<svg xmlns="http://www.w3.org/2000/svg" xmlns:xlink="http://www.w3.org/1999/xlink" width="160" zoomAndPan="magnify" viewBox="0 0 120 36.000001" height="48" preserveAspectRatio="xMidYMid meet" version="1.0"><defs><g/><clipPath id="bc8fe95108"><path d="M 1.621094 0 L 118.378906 0 L 118.378906 35.027344 L 1.621094 35.027344 Z M 1.621094 0 " clip-rule="nonzero"/></clipPath><clipPath id="5042811ad4"><rect x="0" width="49" y="0" height="30"/></clipPath><clipPath id="30a2e768dc"><path d="M 58.375 4.542969 L 114.964844 4.542969 L 114.964844 30.503906 L 58.375 30.503906 Z M 58.375 4.542969 " clip-rule="nonzero"/></clipPath><clipPath id="72b4561d67"><path d="M 62.746094 4.542969 L 114.875 4.542969 L 110.503906 30.503906 L 58.375 30.503906 Z M 62.746094 4.542969 " clip-rule="nonzero"/></clipPath><clipPath id="e11cd1371a"><path d="M 0.375 0.542969 L 56.875 0.542969 L 56.875 26.503906 L 0.375 26.503906 Z M 0.375 0.542969 " clip-rule="nonzero"/></clipPath><clipPath id="66f2f0ea6f"><path d="M 4.746094 0.542969 L 56.875 0.542969 L 52.503906 26.503906 L 0.375 26.503906 Z M 4.746094 0.542969 " clip-rule="nonzero"/></clipPath><clipPath id="80a89a6b28"><rect x="0" width="57" y="0" height="27"/></clipPath><clipPath id="cc9cf48216"><path d="M 6.390625 4.542969 L 62.980469 4.542969 L 62.980469 30.503906 L 6.390625 30.503906 Z M 6.390625 4.542969 " clip-rule="nonzero"/></clipPath><clipPath id="9dacfa25e4"><path d="M 10.761719 4.542969 L 62.890625 4.542969 L 58.519531 30.503906 L 6.390625 30.503906 Z M 10.761719 4.542969 " clip-rule="nonzero"/></clipPath><clipPath id="5ad1cc0a0a"><path d="M 0.390625 0.542969 L 56.980469 0.542969 L 56.980469 26.503906 L 0.390625 26.503906 Z M 0.390625 0.542969 " clip-rule="nonzero"/></clipPath><clipPath id="60ac688e94"><path d="M 4.761719 0.542969 L 56.890625 0.542969 L 52.519531 26.503906 L 0.390625 26.503906 Z M 4.761719 0.542969 " clip-rule="nonzero"/></clipPath><clipPath id="1fb60c9e8c"><rect x="0" width="57" y="0" height="27"/></clipPath><clipPath id="cd3899cef5"><path d="M 7.617188 5.835938 L 61.75 5.835938 L 61.75 29.207031 L 7.617188 29.207031 Z M 7.617188 5.835938 " clip-rule="nonzero"/></clipPath><clipPath id="dda1e82ed9"><path d="M 11.550781 5.835938 L 61.664062 5.835938 L 57.730469 29.207031 L 7.617188 29.207031 Z M 11.550781 5.835938 " clip-rule="nonzero"/></clipPath><clipPath id="20fb0d8296"><path d="M 0.617188 0.835938 L 54.75 0.835938 L 54.75 24.207031 L 0.617188 24.207031 Z M 0.617188 0.835938 " clip-rule="nonzero"/></clipPath><clipPath id="050ab91e6f"><path d="M 4.550781 0.835938 L 54.664062 0.835938 L 50.730469 24.207031 L 0.617188 24.207031 Z M 4.550781 0.835938 " clip-rule="nonzero"/></clipPath><clipPath id="00f875866a"><rect x="0" width="55" y="0" height="25"/></clipPath><clipPath id="1618527613"><path d="M 0.597656 6 L 10 6 L 10 23 L 0.597656 23 Z M 0.597656 6 " clip-rule="nonzero"/></clipPath><clipPath id="7a4e50b28b"><rect x="0" width="48" y="0" height="29"/></clipPath><clipPath id="6f4c360c70"><rect x="0" width="49" y="0" height="25"/></clipPath></defs><g clip-path="url(#bc8fe95108)"><path fill="#ffffff" d="M 1.621094 0 L 118.378906 0 L 118.378906 35.027344 L 1.621094 35.027344 Z M 1.621094 0 " fill-opacity="1" fill-rule="nonzero"/><path fill="#ffffff" d="M 1.621094 0 L 118.378906 0 L 118.378906 35.027344 L 1.621094 35.027344 Z M 1.621094 0 " fill-opacity="1" fill-rule="nonzero"/></g><g transform="matrix(1, 0, 0, 1, 8, 5)"><g clip-path="url(#5042811ad4)"><g fill="#004aad" fill-opacity="1"><g transform="translate(0.841442, 22.29658)"><g><path d="M 0.25 0 L 3.28125 -13.171875 L 1.34375 -13.171875 L 2.0625 -16.296875 L 9.203125 -16.296875 L 8.484375 -13.171875 L 6.546875 -13.171875 L 3.515625 0 Z M 0.25 0 "/></g></g></g><g fill="#004aad" fill-opacity="1"><g transform="translate(8.824643, 22.29658)"><g><path d="M 2.609375 -16.296875 L 7.625 -16.296875 C 8.414062 -16.296875 8.988281 -16.113281 9.34375 -15.75 C 9.695312 -15.394531 9.875 -14.890625 9.875 -14.234375 C 9.875 -13.585938 9.757812 -12.753906 9.53125 -11.734375 C 9.320312 -10.816406 9.035156 -10.097656 8.671875 -9.578125 C 8.316406 -9.054688 7.816406 -8.695312 7.171875 -8.5 C 7.640625 -8.394531 7.9375 -8.144531 8.0625 -7.75 C 8.195312 -7.363281 8.191406 -6.835938 8.046875 -6.171875 L 6.578125 0 L 3.390625 0 L 4.859375 -6.375 C 4.960938 -6.832031 4.9375 -7.125 4.78125 -7.25 C 4.632812 -7.375 4.328125 -7.4375 3.859375 -7.4375 L 2.15625 0 L -1.140625 0 Z M 5.328125 -10.265625 C 5.785156 -10.265625 6.125 -10.753906 6.34375 -11.734375 C 6.445312 -12.171875 6.5 -12.492188 6.5 -12.703125 C 6.507812 -12.921875 6.472656 -13.070312 6.390625 -13.15625 C 6.316406 -13.238281 6.179688 -13.28125 5.984375 -13.28125 L 5.234375 -13.28125 L 4.546875 -10.265625 Z M 5.328125 -10.265625 "/></g></g></g><g fill="#004aad" fill-opacity="1"><g transform="translate(18.343708, 22.29658)"><g><path d="M -1.140625 0 L 2.609375 -16.296875 L 9.140625 -16.296875 L 8.421875 -13.140625 L 5.21875 -13.140625 L 4.46875 -9.984375 L 7.546875 -9.984375 L 6.84375 -6.90625 L 3.765625 -6.90625 L 2.90625 -3.171875 L 6.3125 -3.171875 L 5.59375 0 Z M -1.140625 0 "/></g></g></g><g fill="#004aad" fill-opacity="1"><g transform="translate(26.6303, 22.29658)"><g><path d="M -1.140625 0 L 2.609375 -16.296875 L 5.96875 -16.296875 L 5.671875 -8.5 L 7.46875 -16.296875 L 10.625 -16.296875 L 6.859375 0 L 3.671875 0 L 3.921875 -8.15625 L 2.046875 0 Z M -1.140625 0 "/></g></g></g><g fill="#004aad" fill-opacity="1"><g transform="translate(36.547563, 22.29658)"><g><path d="M 2.609375 -16.296875 L 7.109375 -16.296875 C 8.273438 -16.296875 9.070312 -15.972656 9.5 -15.328125 C 9.9375 -14.679688 10.019531 -13.726562 9.75 -12.46875 L 8.015625 -4.84375 C 7.648438 -3.226562 7.09375 -2.015625 6.34375 -1.203125 C 5.59375 -0.398438 4.554688 0 3.234375 0 L -1.140625 0 Z M 3.375 -2.890625 C 3.96875 -2.890625 4.332031 -3.175781 4.46875 -3.75 L 6.40625 -12.15625 C 6.5 -12.519531 6.535156 -12.796875 6.515625 -12.984375 C 6.492188 -13.171875 6.414062 -13.296875 6.28125 -13.359375 C 6.144531 -13.421875 5.921875 -13.453125 5.609375 -13.453125 L 5.25 -13.453125 L 2.796875 -2.890625 Z M 3.375 -2.890625 "/></g></g></g></g></g><g clip-path="url(#30a2e768dc)"><g clip-path="url(#72b4561d67)"><g transform="matrix(1, 0, 0, 1, 58, 4)"><g clip-path="url(#80a89a6b28)"><g clip-path="url(#e11cd1371a)"><g clip-path="url(#66f2f0ea6f)"><path fill="#004aad" d="M 0.375 0.542969 L 56.863281 0.542969 L 56.863281 26.503906 L 0.375 26.503906 Z M 0.375 0.542969 " fill-opacity="1" fill-rule="nonzero"/></g></g></g></g></g></g><g clip-path="url(#cc9cf48216)"><g clip-path="url(#9dacfa25e4)"><g transform="matrix(1, 0, 0, 1, 6, 4)"><g clip-path="url(#1fb60c9e8c)"><g clip-path="url(#5ad1cc0a0a)"><g clip-path="url(#60ac688e94)"><path fill="#004aad" d="M 0.390625 0.542969 L 56.878906 0.542969 L 56.878906 26.503906 L 0.390625 26.503906 Z M 0.390625 0.542969 " fill-opacity="1" fill-rule="nonzero"/></g></g></g></g></g></g><g clip-path="url(#cd3899cef5)"><g clip-path="url(#dda1e82ed9)"><g transform="matrix(1, 0, 0, 1, 7, 5)"><g clip-path="url(#00f875866a)"><g clip-path="url(#20fb0d8296)"><g clip-path="url(#050ab91e6f)"><path fill="#ffffff" d="M 0.617188 0.835938 L 54.660156 0.835938 L 54.660156 24.207031 L 0.617188 24.207031 Z M 0.617188 0.835938 " fill-opacity="1" fill-rule="nonzero"/></g></g></g></g></g></g><g transform="matrix(1, 0, 0, 1, 12, 3)"><g clip-path="url(#7a4e50b28b)"><g clip-path="url(#1618527613)"><g fill="#004aad" fill-opacity="1"><g transform="translate(0.610361, 22.28165)"><g><path d="M 0.25 0 L 3.25 -13.015625 L 1.328125 -13.015625 L 2.046875 -16.109375 L 9.09375 -16.109375 L 8.375 -13.015625 L 6.46875 -13.015625 L 3.46875 0 Z M 0.25 0 "/></g></g></g></g><g fill="#004aad" fill-opacity="1"><g transform="translate(8.503711, 22.28165)"><g><path d="M 2.578125 -16.109375 L 7.53125 -16.109375 C 8.320312 -16.109375 8.890625 -15.925781 9.234375 -15.5625 C 9.585938 -15.207031 9.765625 -14.707031 9.765625 -14.0625 C 9.765625 -13.425781 9.648438 -12.609375 9.421875 -11.609375 C 9.210938 -10.691406 8.929688 -9.976562 8.578125 -9.46875 C 8.222656 -8.957031 7.722656 -8.601562 7.078125 -8.40625 C 7.546875 -8.300781 7.84375 -8.054688 7.96875 -7.671875 C 8.101562 -7.285156 8.097656 -6.757812 7.953125 -6.09375 L 6.5 0 L 3.359375 0 L 4.796875 -6.296875 C 4.910156 -6.742188 4.890625 -7.03125 4.734375 -7.15625 C 4.585938 -7.28125 4.285156 -7.34375 3.828125 -7.34375 L 2.140625 0 L -1.125 0 Z M 5.265625 -10.140625 C 5.710938 -10.140625 6.050781 -10.628906 6.28125 -11.609375 C 6.375 -12.035156 6.425781 -12.351562 6.4375 -12.5625 C 6.445312 -12.769531 6.410156 -12.914062 6.328125 -13 C 6.242188 -13.082031 6.109375 -13.125 5.921875 -13.125 L 5.171875 -13.125 L 4.5 -10.140625 Z M 5.265625 -10.140625 "/></g></g></g><g fill="#004aad" fill-opacity="1"><g transform="translate(17.915673, 22.28165)"><g><path d="M -1.125 0 L 2.578125 -16.109375 L 9.03125 -16.109375 L 8.328125 -13 L 5.15625 -13 L 4.421875 -9.859375 L 7.453125 -9.859375 L 6.765625 -6.828125 L 3.734375 -6.828125 L 2.859375 -3.125 L 6.234375 -3.125 L 5.53125 0 Z M -1.125 0 "/></g></g></g><g fill="#004aad" fill-opacity="1"><g transform="translate(26.108988, 22.28165)"><g><path d="M -1.125 0 L 2.578125 -16.109375 L 5.90625 -16.109375 L 5.609375 -8.40625 L 7.390625 -16.109375 L 10.5 -16.109375 L 6.78125 0 L 3.640625 0 L 3.875 -8.0625 L 2.015625 0 Z M -1.125 0 "/></g></g></g><g fill="#004aad" fill-opacity="1"><g transform="translate(35.914649, 22.28165)"><g><path d="M 2.578125 -16.109375 L 7.03125 -16.109375 C 8.175781 -16.109375 8.960938 -15.785156 9.390625 -15.140625 C 9.828125 -14.503906 9.910156 -13.5625 9.640625 -12.3125 L 7.921875 -4.78125 C 7.566406 -3.195312 7.015625 -2.003906 6.265625 -1.203125 C 5.523438 -0.398438 4.503906 0 3.203125 0 L -1.125 0 Z M 3.328125 -2.84375 C 3.921875 -2.84375 4.285156 -3.132812 4.421875 -3.71875 L 6.328125 -12.015625 C 6.421875 -12.378906 6.457031 -12.648438 6.4375 -12.828125 C 6.414062 -13.015625 6.335938 -13.140625 6.203125 -13.203125 C 6.078125 -13.265625 5.859375 -13.296875 5.546875 -13.296875 L 5.1875 -13.296875 L 2.765625 -2.84375 Z M 3.328125 -2.84375 "/></g></g></g></g></g><g transform="matrix(1, 0, 0, 1, 62, 5)"><g clip-path="url(#6f4c360c70)"><g fill="#ffffff" fill-opacity="1"><g transform="translate(2.748346, 18.649876)"><g><path d="M -0.984375 0 L 2.265625 -14.078125 L 6.5625 -14.078125 L 5.75 -5.484375 L 8.921875 -14.078125 L 13.25 -14.078125 L 10 0 L 7.421875 0 L 9.765625 -10.140625 L 5.796875 0 L 3.28125 0 L 3.90625 -10.140625 L 1.5625 0 Z M -0.984375 0 "/></g></g></g><g fill="#ffffff" fill-opacity="1"><g transform="translate(15.287149, 18.649876)"><g><path d="M 2.34375 0.125 C 1.207031 0.125 0.425781 -0.21875 0 -0.90625 C -0.4375 -1.601562 -0.507812 -2.578125 -0.21875 -3.828125 L 1.328125 -10.546875 C 1.609375 -11.753906 2.113281 -12.664062 2.84375 -13.28125 C 3.582031 -13.894531 4.519531 -14.203125 5.65625 -14.203125 C 6.789062 -14.203125 7.582031 -13.894531 8.03125 -13.28125 C 8.476562 -12.664062 8.5625 -11.753906 8.28125 -10.546875 L 6.734375 -3.828125 C 6.441406 -2.566406 5.921875 -1.59375 5.171875 -0.90625 C 4.421875 -0.21875 3.476562 0.125 2.34375 0.125 Z M 2.9375 -2.453125 C 3.1875 -2.453125 3.378906 -2.5625 3.515625 -2.78125 C 3.660156 -3 3.78125 -3.304688 3.875 -3.703125 L 5.453125 -10.59375 C 5.523438 -10.894531 5.539062 -11.140625 5.5 -11.328125 C 5.46875 -11.523438 5.328125 -11.625 5.078125 -11.625 C 4.609375 -11.625 4.289062 -11.269531 4.125 -10.5625 L 2.546875 -3.6875 C 2.441406 -3.28125 2.414062 -2.972656 2.46875 -2.765625 C 2.519531 -2.554688 2.675781 -2.453125 2.9375 -2.453125 Z M 2.9375 -2.453125 "/></g></g></g><g fill="#ffffff" fill-opacity="1"><g transform="translate(23.570099, 18.649876)"><g><path d="M 0.21875 0 L 2.828125 -11.375 L 1.15625 -11.375 L 1.78125 -14.078125 L 7.953125 -14.078125 L 7.328125 -11.375 L 5.65625 -11.375 L 3.03125 0 Z M 0.21875 0 "/></g></g></g><g fill="#ffffff" fill-opacity="1"><g transform="translate(30.379871, 18.649876)"><g><path d="M 2.34375 0.125 C 1.207031 0.125 0.425781 -0.21875 0 -0.90625 C -0.4375 -1.601562 -0.507812 -2.578125 -0.21875 -3.828125 L 1.328125 -10.546875 C 1.609375 -11.753906 2.113281 -12.664062 2.84375 -13.28125 C 3.582031 -13.894531 4.519531 -14.203125 5.65625 -14.203125 C 6.789062 -14.203125 7.582031 -13.894531 8.03125 -13.28125 C 8.476562 -12.664062 8.5625 -11.753906 8.28125 -10.546875 L 6.734375 -3.828125 C 6.441406 -2.566406 5.921875 -1.59375 5.171875 -0.90625 C 4.421875 -0.21875 3.476562 0.125 2.34375 0.125 Z M 2.9375 -2.453125 C 3.1875 -2.453125 3.378906 -2.5625 3.515625 -2.78125 C 3.660156 -3 3.78125 -3.304688 3.875 -3.703125 L 5.453125 -10.59375 C 5.523438 -10.894531 5.539062 -11.140625 5.5 -11.328125 C 5.46875 -11.523438 5.328125 -11.625 5.078125 -11.625 C 4.609375 -11.625 4.289062 -11.269531 4.125 -10.5625 L 2.546875 -3.6875 C 2.441406 -3.28125 2.414062 -2.972656 2.46875 -2.765625 C 2.519531 -2.554688 2.675781 -2.453125 2.9375 -2.453125 Z M 2.9375 -2.453125 "/></g></g></g><g fill="#ffffff" fill-opacity="1"><g transform="translate(38.662821, 18.649876)"><g><path d="M 2.265625 -14.078125 L 6.59375 -14.078125 C 7.28125 -14.078125 7.773438 -13.921875 8.078125 -13.609375 C 8.378906 -13.296875 8.53125 -12.859375 8.53125 -12.296875 C 8.53125 -11.734375 8.4375 -11.015625 8.25 -10.140625 C 8.0625 -9.347656 7.8125 -8.726562 7.5 -8.28125 C 7.1875 -7.832031 6.75 -7.519531 6.1875 -7.34375 C 6.59375 -7.257812 6.851562 -7.046875 6.96875 -6.703125 C 7.082031 -6.367188 7.078125 -5.910156 6.953125 -5.328125 L 5.6875 0 L 2.9375 0 L 4.1875 -5.5 C 4.289062 -5.894531 4.273438 -6.144531 4.140625 -6.25 C 4.015625 -6.363281 3.75 -6.421875 3.34375 -6.421875 L 1.875 0 L -0.984375 0 Z M 4.609375 -8.875 C 4.992188 -8.875 5.285156 -9.296875 5.484375 -10.140625 C 5.578125 -10.515625 5.625 -10.796875 5.625 -10.984375 C 5.632812 -11.171875 5.601562 -11.296875 5.53125 -11.359375 C 5.457031 -11.429688 5.335938 -11.46875 5.171875 -11.46875 L 4.515625 -11.46875 L 3.9375 -8.875 Z M 4.609375 -8.875 "/></g></g></g></g></g></svg>